PathFileType	4	(X/Y/Z)	C:\Users\WrightLab\Desktop\Jo\P2_Trial28.trc
DataRate	CameraRate	NumFrames	NumMarkers	Units	OrigDataRate	OrigDataStartFrame	OrigNumFrames
100.00	100.00	       13	19	mm	100.00	178	       472
Frame#	Time	Headset_Front			Headset_Back			Headset_Left			Headset_Right			Left_Shoulder			Right_Shoulder			Sternum			C7			Left Elbow			Right Elbow			Left Wrist			Right Wrist			Left ASIS			Right ASIS			S2			Left Knee			Right Knee			Left Ankle			Right Ankle			
		X1	Y1	Z1	X2	Y2	Z2	X3	Y3	Z3	X4	Y4	Z4	X5	Y5	Z5	X6	Y6	Z6	X7	Y7	Z7	X8	Y8	Z8	X9	Y9	Z9	X10	Y10	Z10	X11	Y11	Z11	X12	Y12	Z12	X13	Y13	Z13	X14	Y14	Z14	X15	Y15	Z15	X16	Y16	Z16	X17	Y17	Z17	X18	Y18	Z18	X19	Y19	Z19	

178	1.770	-596.13123	1416.06860	35.84092	-641.57281	1657.77344	-148.27547	-519.45374	1538.81177	-114.13795	-711.74933	1508.21313	9.03625	-512.53394	1417.82312	-204.04486	-826.86365	1416.34094	-173.46024	-665.85614	1299.27930	-114.35279	-689.99890	1391.53137	-289.36249	-365.34482	1088.61182	-233.95248	-988.95764	1134.00806	-282.10446	-282.77927	862.97601	-260.44009	-1116.33765	920.46008	-308.23236	-588.47736	1019.80908	-74.23104	-725.37305	1011.82935	-57.87485	-686.54675	906.45135	-316.86688	-550.22437	409.59384	-268.29013				-559.32458	159.06154	-500.67035	-892.35461	163.20186	166.76509	
179	1.780	-593.92303	1418.02173	46.73016	-640.66754	1659.21191	-137.09923	-518.60095	1540.86877	-103.42260	-710.21906	1510.31812	21.07045	-512.38879	1420.61658	-194.82343	-825.66101	1418.57532	-159.81990	-663.91034	1301.36523	-102.83778	-691.02814	1393.85852	-277.24152	-366.86954	1090.69202	-230.21652	-986.88184	1134.57861	-266.36328	-287.47977	865.61127	-264.22998	-1112.07532	919.05414	-291.20923	-587.11908	1022.61694	-67.97060	-722.93701	1014.73596	-48.37835	-687.85980	908.68280	-306.52597	-556.63586	409.24091	-247.21295				-564.10571	169.19064	-482.63266	-886.56610	157.01875	169.05559	
180	1.790	-591.94220	1420.64539	58.89962	-640.20007	1661.80408	-126.09082	-517.22461	1543.38257	-90.98573	-706.94934	1512.29395	33.27295	-512.22327	1423.59607	-185.65649	-826.13690	1418.58179	-146.89471	-661.55719	1304.34583	-92.77238	-692.06537	1396.78369	-266.06323	-368.64188	1093.23267	-227.62117	-985.00702	1135.25610	-251.63979	-292.22900	868.02319	-268.10437	-1107.14001	917.48956	-274.05295	-583.54968	1025.74365	-58.84754	-719.68097	1019.15369	-37.56490	-689.54144	911.57117	-296.65082	-562.03119	409.54193	-225.03229	-1140.71460	783.38873	-204.22614	-572.19073	177.51428	-464.10178	-879.26263	151.44136	171.90378	
181	1.800	-589.53149	1421.94531	68.57539	-638.43536	1664.48901	-113.74816	-515.84082	1545.76807	-80.71574	-704.31226	1514.91370	45.50231	-511.02634	1426.99768	-176.92120	-823.79230	1422.03113	-132.11324	-659.24066	1306.87231	-80.68778	-692.70227	1399.71948	-254.29016	-370.10089	1095.61389	-223.38898	-982.80127	1136.15759	-236.22012	-296.28128	870.53168	-271.66913	-1102.23914	916.05811	-256.64307	-580.19324	1028.35925	-51.61383	-715.61896	1021.89227	-26.87442	-690.68030	914.01831	-286.67105	-560.27802	412.40564	-204.14371				-580.41931	186.49324	-444.20618	-873.72351	147.32802	171.04495	
182	1.810	-587.13745	1424.30945	78.99799	-636.61249	1667.54907	-102.82600	-513.97168	1548.55481	-71.47157	-702.32959	1517.47424	56.69787	-510.70044	1430.01892	-168.61693	-822.85040	1424.18811	-118.07368	-656.32678	1309.67078	-70.55589	-693.11798	1402.64966	-242.71948	-371.50174	1098.34778	-220.77043	-980.15509	1136.97595	-219.04488	-301.39432	873.27588	-274.86102	-1097.12268	914.59991	-238.69249	-577.66711	1029.28027	-43.67719	-711.34448	1024.16101	-16.83364	-692.02954	917.22186	-277.28873	-557.67731	412.23386	-185.78419	-865.03528	548.50739	1.07907	-587.48474	194.81966	-424.08090	-866.40271	142.29114	170.18237	
183	1.820	-584.17627	1426.95935	89.51229	-634.55341	1670.39502	-91.26125	-511.86356	1550.84583	-59.53538	-699.58228	1519.81384	68.35250	-509.68115	1433.33044	-160.33575	-820.71625	1425.74792	-104.18351	-653.13953	1312.61047	-59.43663	-693.18970	1405.39099	-231.21524	-372.67444	1101.30579	-218.22333	-977.47070	1137.70264	-203.24977	-306.62003	875.82086	-278.69839	-1091.59631	912.78021	-220.24913	-574.02600	1030.91797	-36.40841	-707.51019	1025.59717	-7.29017	-693.61053	920.66388	-268.49753	-553.10071	414.03555	-165.65662	-869.92871	549.78851	17.26946	-595.19427	202.57896	-402.72159	-859.24377	139.87787	170.71107	
184	1.830	-580.86530	1429.76318	101.31473	-632.73596	1673.32117	-80.44457	-509.69720	1553.65747	-49.68315	-696.81836	1522.65625	79.70173	-508.03864	1436.14148	-151.71629	-819.25574	1428.05286	-90.94756	-649.94800	1315.52954	-48.29524	-693.64307	1409.03674	-219.90176	-373.68042	1104.70825	-216.12978	-974.69708	1137.82690	-186.59827	-310.95438	878.45245	-281.67194	-1085.23157	910.20728	-200.34592	-570.30780	1032.35413	-28.48630	-704.46027	1027.31421	1.99099	-694.46924	924.16626	-259.57648	-545.96637	416.06009	-146.24353	-874.25122	553.35480	30.84579	-603.51544	209.85333	-382.08575	-852.96741	137.32991	167.50633	
185	1.840	-577.69885	1432.59741	112.55785	-630.64948	1675.55762	-69.22550	-507.09476	1556.12854	-38.96206	-693.60632	1524.53906	91.13040	-506.90671	1438.95837	-143.66653	-817.08600	1430.30933	-77.27037	-646.44769	1317.21191	-38.20262	-694.06342	1411.68530	-208.73071	-374.44827	1107.82202	-214.81102	-971.92249	1138.40454	-170.12695	-315.43945	880.70178	-281.63885	-1079.40137	909.14319	-181.66530	-567.66656	1034.17676	-19.51327	-700.40778	1028.04150	12.69230	-695.12378	927.83539	-251.23189	-538.94769	420.20538	-127.74348	-878.86688	556.64404	45.06257	-611.47711	216.60011	-359.88577	-845.99445	136.37672	164.64691	
186	1.850	-574.05573	1435.01990	122.89736	-628.13452	1677.74976	-59.23310	-504.44907	1558.47339	-28.52430	-689.68488	1526.62476	102.56035	-505.29932	1441.38770	-135.05782	-814.48755	1431.67810	-62.84808	-642.93396	1318.91602	-28.74964	-694.08899	1414.36707	-196.58975	-374.94821	1110.76758	-213.56393	-969.00720	1138.80566	-154.17430	-319.67899	883.05646	-281.51953	-1072.78259	906.60992	-160.39922	-564.33655	1035.47803	-12.34079	-695.78351	1028.42969	21.48502	-694.95642	931.30560	-242.65894	-531.48596	425.54791	-110.10668	-881.93750	560.45465	56.18053	-618.43970	222.69972	-338.56250	-839.78998	134.97891	163.09816	
187	1.860	-569.68671	1438.12048	137.88509	-625.91736	1679.44629	-47.29617	-501.79373	1560.64990	-18.53614	-686.76990	1528.76196	113.12363	-504.36496	1444.11255	-126.95313	-812.51978	1433.83862	-49.48598	-640.10767	1321.02698	-17.72818	-693.41418	1416.68347	-184.07085	-375.81396	1113.88501	-211.62782	-965.96686	1139.43591	-137.57437	-326.39059	885.65320	-285.27185	-1065.48303	905.00848	-138.88193	-559.40063	1037.19141	-4.85226	-692.65045	1028.24585	30.55979	-694.60736	935.11499	-234.07661	-527.11438	429.98758	-92.16044	-883.43134	563.40369	67.53302	-624.79724	226.34430	-314.50620	-834.09943	136.19469	160.39456	
188	1.870	-564.08289	1439.30566	149.17320	-624.29047	1681.13477	-38.18517	-499.10434	1562.53931	-9.28858	-683.65784	1531.04468	124.39599	-503.28098	1446.08875	-118.91391	-809.73334	1435.20740	-35.54195	-636.84650	1322.34216	-7.10061	-693.11560	1419.27527	-172.43187	-376.57837	1116.86194	-210.39951	-962.48828	1139.70740	-120.25816	-330.64169	855.46814	-197.40254	-1058.08521	903.18042	-117.74866	-556.47412	1038.79932	2.25984	-688.60297	1029.06812	40.99847	-693.89380	938.32581	-225.70972	-518.36566	436.00842	-76.94788	-882.66937	566.50641	75.07999	-630.94482	230.21501	-291.59799	-828.44800	135.95329	158.94765	
189	1.880	-562.24957	1442.45764	159.76334				-496.22659	1563.97729	0.13674	-679.15912	1533.06787	135.60304	-501.98303	1447.34656	-110.09077	-806.26245	1436.45068	-21.43163	-632.47137	1322.69910	0.78702	-693.13684	1421.63306	-161.26164	-377.70786	1119.42383	-207.76074	-959.19183	1139.69983	-102.85023	-337.17810	889.99921	-281.96414	-1050.39551	901.38647	-94.98363	-553.74689	1039.68860	8.97514	-683.86932	1028.32764	48.18626	-693.17078	941.34332	-217.34486	-510.32816	441.34283	-61.91578	-881.29602	567.62195	80.87714	-636.41785	232.12779	-267.06155	-823.58569	135.00531	154.77493	
190	1.890	-557.66290	1443.83569	170.36382	-619.53790	1683.00439	-17.98680	-493.26715	1565.14124	8.92421	-674.73804	1534.31433	147.54393	-500.40057	1448.61731	-101.77396	-802.70538	1437.16455	-7.57150	-628.36926	1322.66223	10.81391	-692.02185	1423.30566	-148.23956	-379.12943	1121.83069	-205.49220	-955.38660	1139.43848	-84.08817	-341.70593	892.05988	-279.41180	-1042.67993	899.45636	-72.45152	-549.49121	1041.65173	15.07439	-680.09497	1030.17346	58.21950	-692.52985	943.98987	-209.07767	-502.53052	446.28967	-46.80135	-878.57623	566.04492	86.54709	-639.90881	234.07027	-242.25978	-819.99158	133.96385	153.51465	
